<?xml version="1.0" standalone="no"?>
<!DOCTYPE svg PUBLIC "-//W3C//DTD SVG 20010904//EN"
 "http://www.w3.org/TR/2001/REC-SVG-20010904/DTD/svg10.dtd">
<svg version="1.0" xmlns="http://www.w3.org/2000/svg"
 width="195.000000pt" height="195.000000pt" viewBox="0 0 195.000000 195.000000"
 preserveAspectRatio="xMidYMid meet">
<metadata>
Created by potrace 1.11, written by Peter Selinger 2001-2013
</metadata>
<g transform="translate(0.000000,195.000000) scale(0.100000,-0.100000)"
fill="#000000" stroke="none">
<path d="M803 1925 c-101 -18 -164 -41 -273 -96 -204 -105 -368 -286 -453
-500 -38 -95 -38 -104 -2 -102 62 3 236 -18 312 -38 185 -48 395 -177 536
-328 26 -28 50 -51 53 -51 2 0 36 31 75 70 189 186 411 298 659 330 98 12 177
13 185 0 4 -6 -7 -10 -27 -10 -18 0 -69 -9 -113 -19 -44 -11 -83 -17 -87 -15
-5 3 -8 0 -8 -5 0 -6 -7 -11 -15 -11 -31 0 -214 -104 -283 -161 -168 -139
-299 -356 -365 -603 l-23 -88 -23 88 c-89 353 -323 642 -613 757 -85 34 -230
69 -271 65 -31 -3 -32 -5 -45 -73 -19 -100 -10 -306 18 -410 159 -590 818
-889 1366 -620 603 298 722 1103 232 1571 -217 208 -536 303 -835 249z m268
-458 c145 -77 145 -293 0 -366 -58 -30 -96 -34 -154 -17 -146 43 -201 214
-104 331 61 75 173 97 258 52z"/>
</g>
</svg>
